Screens
 
http://bayimg.com/AapBIAadd


Seeding Time 24/7

Don't Forget To Say Thanks If You Like My Post



-=Media Info=-

Format : AVI
Format/Info : Audio Video Interleave
File size : 584 MiB
Duration : 1h 49mn
Overall bit rate : 746 Kbps
Writing library : VirtualDub build 11636/release

Video
ID : 0
Format : MPEG-4 Visual
Codec ID : DIV3
Codec ID/Hint : DivX 3 Low
Duration : 1h 49mn
Bit rate : 652 Kbps
Width : 352 pixels
Height : 240 pixels
Display aspect ratio : 3:2
Frame rate : 15.000 fps
Standard : NTSC
Color space : YUV
Chroma subsampling : 40
Bit depth : 8 bits
Compression mode : Lossy
Bits/(Pixel*Frame) : 0.515
Stream size : 510 MiB (87%)

Audio
ID : 1
Format : PCM
Format settings, Sign : Unsigned
Codec ID : 1
Duration : 1h 49mn
Bit rate mode : Constant
Bit rate : 88.2 Kbps
Channel(s) : 1 channel
Sampling rate : 11.025 KHz
Bit depth : 8 bits
Stream size : 69.0 MiB (12%)
Interleave, duration : 67 ms (1.00 video frame)
Interleave, preload duration : 499 ms
